<?xml version="1.0" standalone="no"?>
<!DOCTYPE svg PUBLIC "-//W3C//DTD SVG 20010904//EN"
 "http://www.w3.org/TR/2001/REC-SVG-20010904/DTD/svg10.dtd">
<svg version="1.0" xmlns="http://www.w3.org/2000/svg"
 width="700.000000pt" height="700.000000pt" viewBox="0 0 700.000000 700.000000"
 preserveAspectRatio="xMidYMid meet">
<metadata>
Created by potrace 1.11, written by Peter Selinger 2001-2013
</metadata>
<g transform="translate(0.000000,700.000000) scale(0.100000,-0.100000)"
fill="#000000" stroke="none">
<path d="M3285 6994 c-203 -20 -276 -28 -375 -45 -1427 -245 -2564 -1356
-2844 -2779 -47 -241 -60 -386 -60 -670 0 -284 13 -429 60 -670 209 -1064 901
-1972 1875 -2460 360 -181 731 -292 1154 -346 196 -25 614 -25 810 0 794 101
1479 430 2043 981 569 554 924 1276 1028 2090 25 196 25 614 0 810 -101 794
-430 1479 -981 2043 -553 568 -1278 925 -2085 1027 -117 15 -536 28 -625 19z
m595 -329 c608 -76 1147 -304 1625 -688 128 -103 369 -344 472 -472 339 -422
559 -898 658 -1425 37 -193 49 -336 49 -585 0 -274 -13 -405 -64 -647 -91
-431 -276 -855 -522 -1195 -68 -95 -72 -95 -82 7 -9 92 -50 239 -97 346 -107
243 -308 466 -534 590 -38 22 -320 154 -625 295 l-555 257 -3 228 -2 229 83
82 c231 228 352 500 372 838 22 347 -133 736 -386 969 -293 272 -681 375
-1051 280 -431 -110 -761 -470 -859 -937 -31 -145 -30 -372 1 -512 57 -257
173 -468 354 -644 l76 -73 -2 -231 -3 -230 -550 -256 c-302 -141 -581 -273
-620 -295 -226 -124 -427 -347 -534 -590 -47 -107 -88 -254 -97 -346 -10 -102
-14 -102 -82 -7 -246 340 -431 764 -522 1195 -51 242 -64 373 -64 647 0 249
12 392 49 585 99 527 319 1003 658 1425 103 128 344 369 472 472 388 311 825
524 1300 632 156 36 235 47 520 75 83 8 445 -4 565 -19z m-175 -1200 c227 -63
426 -230 540 -455 27 -54 65 -154 65 -173 0 -26 -223 46 -323 105 -91 53 -152
110 -189 176 -78 137 -204 146 -288 20 -113 -172 -252 -272 -467 -336 -80 -25
-287 -62 -340 -62 -34 0 -34 1 -28 33 21 106 80 248 142 339 43 64 151 177
213 223 86 63 230 126 338 145 68 13 267 4 337 -15z m-6 -703 c138 -114 326
-197 541 -240 l95 -19 -3 -44 c-4 -67 -39 -195 -76 -275 -188 -406 -618 -604
-1017 -469 -267 91 -482 330 -558 620 -12 43 -21 82 -21 87 0 4 24 8 53 8 28
0 97 7 152 15 291 44 532 144 710 296 39 32 72 59 74 59 2 0 24 -17 50 -38z
m-459 -1368 c183 -48 420 -41 587 17 31 10 58 19 60 19 1 0 3 -107 3 -238 l0
-237 655 -304 c360 -167 682 -320 716 -340 124 -73 276 -237 342 -368 82 -161
107 -278 114 -533 l5 -195 -73 -66 c-518 -463 -1099 -731 -1774 -816 -178 -23
-572 -23 -750 0 -675 85 -1255 352 -1774 816 l-73 66 6 200 c5 165 10 217 30
297 54 216 169 394 343 534 78 62 135 91 911 455 l542 254 0 239 c0 223 1 238
18 231 9 -4 60 -18 112 -31z"/>
</g>
</svg>
