<?xml version="1.0" encoding="utf-8"?>
<!-- Generator: Adobe Illustrator 16.0.0, SVG Export Plug-In . SVG Version: 6.00 Build 0)  -->
<!DOCTYPE svg PUBLIC "-//W3C//DTD SVG 1.1//EN" "http://www.w3.org/Graphics/SVG/1.1/DTD/svg11.dtd">
<svg version="1.1" id="Layer_1" xmlns="http://www.w3.org/2000/svg" xmlns:xlink="http://www.w3.org/1999/xlink" x="0px" y="0px"
	 width="550.8px" height="550.8px" viewBox="30.6 44.1 550.8 550.8" enable-background="new 30.6 44.1 550.8 550.8"
	 xml:space="preserve">
<path fill="#25995C" d="M306,44.1c-151.776,0-275.4,123.624-275.4,275.4c0,151.776,123.624,275.4,275.4,275.4
	c151.776,0,275.4-123.624,275.4-275.4C581.4,167.724,457.776,44.1,306,44.1z M306,68.58c138.312,0,250.92,112.608,250.92,250.92
	c0,57.528-19.584,110.771-52.02,153c-1.836-36.72-23.868-69.768-56.305-85.068L361.08,347.04v-36.108
	c22.032-17.748,36.107-45.288,36.107-76.5c0-0.612,0-1.224,0-2.448c0-0.612,0-1.224,0-1.836c0-1.836,0-3.672-0.611-4.896
	c-4.284-48.96-43.452-87.516-91.188-87.516c-49.572,0-89.964,41.616-91.188,93.636c0,0.612,0,1.224-0.612,1.836
	c0,1.224,0,2.448,0.612,3.672c0.612,29.988,14.688,56.916,36.108,74.052v36.108l-86.904,40.392
	c-32.436,15.3-54.468,48.348-56.304,85.068c-32.436-42.229-52.02-95.472-52.02-153C55.08,181.188,167.688,68.58,306,68.58z
	 M239.904,246.672c19.584-0.612,55.08-6.12,77.724-29.988c9.18,9.18,25.704,19.584,54.468,23.868
	c-3.06,36.72-31.823,65.484-66.708,65.484C272.952,306.036,245.412,280.332,239.904,246.672z M240.516,222.192
	c5.508-33.66,33.048-59.364,65.484-59.364c30.6,0,56.304,22.032,64.26,52.632c-33.66-6.732-40.392-22.644-41.004-23.256
	c-1.836-4.896-5.508-7.956-10.404-8.568c-4.896-0.612-9.18,1.836-11.628,6.12C293.148,216.072,258.876,220.968,240.516,222.192z
	 M131.58,499.428V478.62c0-29.376,16.524-56.304,42.228-68.544L275.4,362.34v-37.332c9.792,3.672,20.196,5.508,30.6,5.508
	c11.016,0,20.808-1.836,30.6-5.508v37.332l101.593,47.124c25.703,12.24,42.228,39.168,42.228,68.544v21.42
	C435.132,543.492,373.932,570.42,306,570.42C238.068,570.42,176.868,543.492,131.58,499.428z"/>
</svg>
